<?xml version="1.0" encoding="utf-8"?>
<!-- Generator: Adobe Illustrator 21.0.2, SVG Export Plug-In . SVG Version: 6.00 Build 0)  -->
<svg version="1.1" id="Layer_1" xmlns="http://www.w3.org/2000/svg" xmlns:xlink="http://www.w3.org/1999/xlink" x="0px" y="0px"
	 viewBox="0 0 182.7 54.5" style="enable-background:new 0 0 182.7 54.5;" xml:space="preserve">
<style type="text/css">
	.st0{fill:#393E52;}
	.st1{fill:#28C0D5;}
</style>
<g>
	<path class="st0" d="M156.8,14.6L152.8,42h8.6l2.6-17.6c2.8-2.8,5.2-4.2,7.2-4.2c1.8,0,2.7,1.4,2.7,4.1c0,0.5,0,0.9-0.1,1.4
		L171.3,42h8.6l2.5-17c0.1-0.9,0.2-1.7,0.2-2.5c0-2.7-0.7-4.7-2-6.2c-1.3-1.5-3.3-2.2-5.8-2.2c-3.3,0-6.6,1.2-9.8,3.6l0.5-3.1H156.8
		z M109.8,14.6L105.7,42h8.6l4.1-27.5H109.8z M96.3,14.6l-6.7,8.1l-4.3-8.1h-9.5l8.2,13.1L70.5,42h10.8l7.4-8.6l4.6,8.6h9.4
		l-8.5-13.4l12.5-14H96.3z M53.9,36.5c-1.3,0-2.3-0.5-3.1-1.4c-0.7-0.9-1.1-2.2-1.1-3.9c0-2.9,0.9-5.3,2.6-7.3s4.3-3,7.8-3
		c0.6,0,1.2,0,1.9,0.1l-1.9,13C58,35.7,56,36.5,53.9,36.5 M61.7,14.1c-6.7,0-11.9,1.5-15.5,4.6c-3.6,3.1-5.4,7.1-5.4,12
		c0,3.4,1,6.3,2.9,8.5s4.3,3.3,7.2,3.3c2.8,0,5.6-1,8.3-3.1L58.9,42h8.5l4-27C68.3,14.4,65.1,14.1,61.7,14.1 M23.6,14.6L19.5,42h8.6
		l2.4-16.3c0.1-0.4,0.7-1.2,1.8-2.3c1.1-1.1,2.3-1.7,3.4-1.7c1.3,0,2.7,1,4.1,3l4-7.6c-1.8-2-3.5-3-5.1-3c-2.1,0-4.4,1.5-7,4.5
		l-0.1-0.1l0.7-4H23.6z M20.6,0.3c-3.7,0-6.7,1.2-9.2,3.6c-2.4,2.4-3.9,6-4.5,10.7H1l-0.9,6.1H6L1,54.1h8.5l4.9-33.4h5.6l0.9-6.1
		h-5.5c0.4-5.1,2.4-7.7,6.2-7.7c1.4,0,3,0.4,4.8,1.3l1-6.6C25,0.7,22.7,0.3,20.6,0.3"/>
	<path class="st0" d="M108.7,4.8c2.4-2.1,5.4-3.4,8.6-3.8l1,7.5c-1.6,0.2-3.1,0.9-4.3,1.9L108.7,4.8z"/>
	<path class="st1" d="M117.3,1c1.6-0.2,3.2-0.2,4.8,0l-1.4,7.5c-0.8-0.1-1.6-0.1-2.4,0L117.3,1z"/>
	<path class="st0" d="M138.3,12.5l-1.4,7.5c0.6,0.1,1.2,0.2,1.7,0.5c4.1,1.6,6,6,4.3,9.9l0,0c-1.2,2.7-3.9,4.5-6.9,4.7
		c-4.4,0.3-8.2-2.8-8.5-7l0-0.1c-0.1-2.3,0.9-4.5,2.7-6.1l-5.3-5.6c-3.6,3.1-5.6,7.6-5.3,12.3l0,0.1c0.3,5.8,4.2,10.8,9.9,13
		c8.2,3.1,17.5-0.6,20.9-8.4l0,0c0.5-1.1,0.8-2.2,1-3.3C152.8,21.6,147,13.8,138.3,12.5"/>
</g>
</svg>
